HIERARCHY
ROOT Hips
{
  OFFSET 5.84602e-005 68.8428 3.50346
  CHANNELS 6 Xposition Yposition Zposition Zrotation Xrotation Yrotation
  JOINT Spine
  {
    OFFSET 0 8.597 -4.6522
    CHANNELS 3 Zrotation Xrotation Yrotation
    JOINT Spine1
    {
      OFFSET 0 7.8454 0.4098
      CHANNELS 3 Zrotation Xrotation Yrotation
      JOINT Spine2
      {
        OFFSET 0 9.7078 -2.1609
        CHANNELS 3 Zrotation Xrotation Yrotation
        JOINT Neck
        {
          OFFSET 0 21.8761 -0.4549
          CHANNELS 3 Zrotation Xrotation Yrotation
          JOINT Head
          {
            OFFSET 0 12.3537 3.3602
            CHANNELS 3 Zrotation Xrotation Yrotation
            End Site
            {
              OFFSET 0.0001 18.9506 0.5657
            }
          }
        }
        JOINT LeftShoulder
        {
          OFFSET 2.2086 21.1115 7.2329
          CHANNELS 3 Zrotation Xrotation Yrotation
          JOINT LeftArm
          {
            OFFSET 13.1193 3.0282 -4.8998
            CHANNELS 3 Zrotation Xrotation Yrotation
            JOINT LeftForeArm
            {
              OFFSET 27.4081 -0.0973053 -0.2375
              CHANNELS 3 Zrotation Xrotation Yrotation
              JOINT LeftHand
              {
                OFFSET 22.8641 0.0662994 -0.1369
                CHANNELS 3 Zrotation Xrotation Yrotation
                JOINT LeftHandIndex1
                {
                  OFFSET 8.8614 0.775009 2.4612
                  CHANNELS 3 Zrotation Xrotation Yrotation
                  JOINT LeftHandIndex2
                  {
                    OFFSET 3.3146 -0.808304 0.5841
                    CHANNELS 3 Zrotation Xrotation Yrotation
                    JOINT LeftHandIndex3
                    {
                      OFFSET 2.2628 -0.552002 0.3989
                      CHANNELS 3 Zrotation Xrotation Yrotation
                      End Site
                      {
                        OFFSET 1.6102 -0.4807 0.2612
                      }
                    }
                  }
                }
                JOINT LeftHandMiddle1
                {
                  OFFSET 8.9937 0.895004 0.2143
                  CHANNELS 3 Zrotation Xrotation Yrotation
                  JOINT LeftHandMiddle2
                  {
                    OFFSET 4.0984 0.0113983 -0.0242
                    CHANNELS 3 Zrotation Xrotation Yrotation
                    JOINT LeftHandMiddle3
                    {
                      OFFSET 2.2716 0.00689697 -0.0138001
                      CHANNELS 3 Zrotation Xrotation Yrotation
                      End Site
                      {
                        OFFSET 2.0404 -0.1441 0.0027
                      }
                    }
                  }
                }
                JOINT LeftHandRing1
                {
                  OFFSET 8.5234 0.597198 -2.0164
                  CHANNELS 3 Zrotation Xrotation Yrotation
                  JOINT LeftHandRing2
                  {
                    OFFSET 3.7188 -0.188293 -0.2328
                    CHANNELS 3 Zrotation Xrotation Yrotation
                    JOINT LeftHandRing3
                    {
                      OFFSET 2.1191 -0.106598 -0.1332
                      CHANNELS 3 Zrotation Xrotation Yrotation
                      End Site
                      {
                        OFFSET 1.8737 -0.2304 -0.0886
                      }
                    }
                  }
                }
                JOINT LeftHandPinky1
                {
                  OFFSET 7.9094 -0.601089 -3.4825
                  CHANNELS 3 Zrotation Xrotation Yrotation
                  JOINT LeftHandPinky2
                  {
                    OFFSET 2.2874 -0.477005 -0.6314
                    CHANNELS 3 Zrotation Xrotation Yrotation
                    JOINT LeftHandPinky3
                    {
                      OFFSET 1.6774 -0.349396 -0.4633
                      CHANNELS 3 Zrotation Xrotation Yrotation
                      End Site
                      {
                        OFFSET 1.4888 -0.4091 -0.3416
                      }
                    }
                  }
                }
                JOINT LeftHandThumb1
                {
                  OFFSET 1.833 -1.3875 1.3896
                  CHANNELS 3 Zrotation Xrotation Yrotation
                  JOINT LeftHandThumb2
                  {
                    OFFSET 3.4129 -1.121 2.5732
                    CHANNELS 3 Zrotation Xrotation Yrotation
                    JOINT LeftHandThumb3
                    {
                      OFFSET 2.2474 -0.804199 1.6192
                      CHANNELS 3 Zrotation Xrotation Yrotation
                      End Site
                      {
                        OFFSET 1.6527 -0.5689 1.1317
                      }
                    }
                  }
                }
              }
            }
          }
        }
        JOINT RightShoulder
        {
          OFFSET -2.2086 21.1115 7.2329
          CHANNELS 3 Zrotation Xrotation Yrotation
          JOINT RightArm
          {
            OFFSET -13.1216 3.0287 -4.9007
            CHANNELS 3 Zrotation Xrotation Yrotation
            JOINT RightForeArm
            {
              OFFSET -27.4081 -0.0973053 -0.2375
              CHANNELS 3 Zrotation Xrotation Yrotation
              JOINT RightHand
              {
                OFFSET -22.8641 0.0664063 -0.1369
                CHANNELS 3 Zrotation Xrotation Yrotation
                JOINT RightHandIndex1
                {
                  OFFSET -8.8614 0.774994 2.4612
                  CHANNELS 3 Zrotation Xrotation Yrotation
                  JOINT RightHandIndex2
                  {
                    OFFSET -3.3146 -0.808304 0.5841
                    CHANNELS 3 Zrotation Xrotation Yrotation
                    JOINT RightHandIndex3
                    {
                      OFFSET -2.2628 -0.552002 0.3989
                      CHANNELS 3 Zrotation Xrotation Yrotation
                      End Site
                      {
                        OFFSET -1.6102 -0.4807 0.2612
                      }
                    }
                  }
                }
                JOINT RightHandMiddle1
                {
                  OFFSET -8.9937 0.894989 0.2143
                  CHANNELS 3 Zrotation Xrotation Yrotation
                  JOINT RightHandMiddle2
                  {
                    OFFSET -4.0984 0.0113983 -0.0242
                    CHANNELS 3 Zrotation Xrotation Yrotation
                    JOINT RightHandMiddle3
                    {
                      OFFSET -2.2716 0.00691223 -0.0138001
                      CHANNELS 3 Zrotation Xrotation Yrotation
                      End Site
                      {
                        OFFSET -2.0404 -0.1441 0.0027
                      }
                    }
                  }
                }
                JOINT RightHandRing1
                {
                  OFFSET -8.5234 0.597198 -2.0164
                  CHANNELS 3 Zrotation Xrotation Yrotation
                  JOINT RightHandRing2
                  {
                    OFFSET -3.7188 -0.188309 -0.2328
                    CHANNELS 3 Zrotation Xrotation Yrotation
                    JOINT RightHandRing3
                    {
                      OFFSET -2.1191 -0.106598 -0.1332
                      CHANNELS 3 Zrotation Xrotation Yrotation
                      End Site
                      {
                        OFFSET -1.8737 -0.2304 -0.0886
                      }
                    }
                  }
                }
                JOINT RightHandPinky1
                {
                  OFFSET -7.9094 -0.601105 -3.4825
                  CHANNELS 3 Zrotation Xrotation Yrotation
                  JOINT RightHandPinky2
                  {
                    OFFSET -2.2874 -0.477005 -0.6314
                    CHANNELS 3 Zrotation Xrotation Yrotation
                    JOINT RightHandPinky3
                    {
                      OFFSET -1.6774 -0.349396 -0.4633
                      CHANNELS 3 Zrotation Xrotation Yrotation
                      End Site
                      {
                        OFFSET -1.4888 -0.4091 -0.3416
                      }
                    }
                  }
                }
                JOINT RightHandThumb1
                {
                  OFFSET -1.833 -1.38751 1.3896
                  CHANNELS 3 Zrotation Xrotation Yrotation
                  JOINT RightHandThumb2
                  {
                    OFFSET -3.41299 -1.12099 2.5732
                    CHANNELS 3 Zrotation Xrotation Yrotation
                    JOINT RightHandThumb3
                    {
                      OFFSET -2.24741 -0.804108 1.6192
                      CHANNELS 3 Zrotation Xrotation Yrotation
                      End Site
                      {
                        OFFSET -1.6527 -0.5689 1.1317
                      }
                    }
                  }
                }
              }
            }
          }
        }
      }
    }
  }
  JOINT RightUpLeg
  {
    OFFSET -9.1966 3.8861 -0.7581
    CHANNELS 3 Zrotation Xrotation Yrotation
    JOINT RightLeg
    {
      OFFSET -0.7359 -41.0265 0
      CHANNELS 3 Zrotation Xrotation Yrotation
      JOINT RightFoot
      {
        OFFSET 0 -40.2855 0
        CHANNELS 3 Zrotation Xrotation Yrotation
        JOINT RightToeBase
        {
          OFFSET 0 -5.6122 11.7359
          CHANNELS 3 Zrotation Xrotation Yrotation
          End Site
          {
            OFFSET 0 0 7.8731
          }
        }
      }
    }
  }
  JOINT LeftUpLeg
  {
    OFFSET 9.1965 3.8864 -0.7581
    CHANNELS 3 Zrotation Xrotation Yrotation
    JOINT LeftLeg
    {
      OFFSET 0.7359 -41.0268 0
      CHANNELS 3 Zrotation Xrotation Yrotation
      JOINT LeftFoot
      {
        OFFSET 0 -40.2855 0
        CHANNELS 3 Zrotation Xrotation Yrotation
        JOINT LeftToeBase
        {
          OFFSET 0 -5.6122 11.7359
          CHANNELS 3 Zrotation Xrotation Yrotation
          End Site
          {
            OFFSET 0 0 7.8731
          }
        }
      }
    }
  }
}
MOTION
Frames:	4
Frame Time:	0.0333333
-75.5712 4.84408 6.07265 -180 -85.9956 -180 -0.416725 2.68033 -0.165169 -0.827061 5.36177 -0.311304 -0.827062 5.36176 -0.311305 6.95532e-006 28.997 3.28151e-006 5.01387 29.5919 -2.50963 18.2993 3.80138 1.35699 38.3245 -2.70932 3.24031 -0.677412 10.6061 -110.037 -43.6729 -48.6413 -11.7256 -2.51325e-007 6.40714e-007 2.42766e-006 3.18055e-015 6.36111e-015 -3.18055e-015 2.51325e-007 -6.40714e-007 -2.42766e-006 -2.51325e-007 6.40714e-007 2.42766e-006 -0.0146155 -8.8937e-005 1.55697e-006 9.54166e-015 -1.59028e-015 -0 -2.51325e-007 6.40714e-007 2.42766e-006 -0.0187958 -0.00117989 6.21637e-005 2.48751e-007 -6.40476e-007 -2.42776e-006 -2.51325e-007 6.40714e-007 2.42766e-006 -0.0122561 -0.0032447 0.000669825 1.27222e-014 3.18055e-015 1.59028e-015 -2.51325e-007 6.40714e-007 2.42766e-006 3.18055e-015 6.36111e-015 -3.18055e-015 2.51325e-007 -6.40714e-007 -2.42766e-006 -20.1916 3.20659 0.384995 -34.417 -1.96961 0.155838 -0.128417 13.3771 94.6623 49.4574 -42.2657 22.7868 3.18055e-015 1.59028e-015 1.59028e-015 3.06972e-007 8.5205e-007 -1.91467e-006 5.62515e-007 9.04607e-007 -1.75376e-006 3.18055e-015 1.59028e-015 1.59028e-015 0.0149836 -9.08625e-005 -2.12518e-006 5.63845e-007 9.04369e-007 -1.75388e-006 3.18055e-015 1.59028e-015 1.59028e-015 0.0190121 -0.00119315 -5.24373e-005 5.64186e-007 9.0421e-007 -1.75392e-006 3.18055e-015 1.59028e-015 1.59028e-015 0.0122896 -0.00325014 -0.000679346 9.54166e-015 -7.95139e-015 -0 3.18055e-015 1.59028e-015 1.59028e-015 3.06972e-007 8.5205e-007 -1.91467e-006 5.62515e-007 9.04607e-007 -1.75376e-006 -12.6932 -30.8493 -7.33117 157.246 66.9027 -162.961 12.8215 9.86672 -2.57909 2.5842e-015 -1.59028e-015 3.18055e-015 14.7071 -38.5179 15.0588 171.179 43.9476 -171.306 13.6314 2.84885 15.4279 -8.35321e-007 1.61667e-007 -3.37818e-008 
-75.5714 4.84391 6.07261 -180 -85.9956 -180 -0.403119 2.71443 -0.163684 -0.799809 5.42991 -0.308739 -0.799808 5.42994 -0.308739 -2.51769e-006 28.9971 -3.47036e-006 4.72949 29.0021 -2.34598 18.5544 3.61512 1.52619 38.0079 -2.66561 3.06274 -0.618446 10.7404 -109.251 -44.0286 -48.1158 -12.56 3.18055e-015 0 -1.59028e-015 9.54166e-015 1.59028e-015 3.18055e-015 -3.18055e-015 1.59028e-015 1.59028e-015 3.18055e-015 0 -1.59028e-015 -0.0146453 -8.85457e-005 -1.6091e-006 6.36111e-015 3.18055e-015 1.59028e-015 3.18055e-015 0 -1.59028e-015 -0.0187638 -0.00117473 6.3707e-005 0 1.59028e-015 -0 3.18055e-015 0 -1.59028e-015 -0.0122465 -0.00324097 0.000678171 6.36111e-015 4.77083e-015 4.77083e-015 3.18055e-015 0 -1.59028e-015 9.54166e-015 1.59028e-015 3.18055e-015 -3.18055e-015 1.59028e-015 1.59028e-015 -20.3482 3.05132 0.122377 -34.3028 -1.95487 0.155781 -0.128424 13.3771 94.6623 49.4039 -42.0421 22.9558 -8.82781e-032 3.18055e-015 1.59028e-015 -3.18055e-015 4.77083e-015 -0 -6.36111e-015 3.18055e-015 3.18055e-015 -8.82781e-032 3.18055e-015 1.59028e-015 0.015031 -8.99412e-005 -5.77426e-006 -6.36111e-015 -3.18055e-015 4.77083e-015 -8.82781e-032 3.18055e-015 1.59028e-015 0.0190608 -0.00119367 -6.54838e-005 5.69171e-007 9.08574e-007 -1.74621e-006 -8.82781e-032 3.18055e-015 1.59028e-015 0.0122488 -0.00324228 -0.000679279 1.59028e-014 3.18055e-015 3.18055e-015 -8.82781e-032 3.18055e-015 1.59028e-015 -3.18055e-015 4.77083e-015 -0 -6.36111e-015 3.18055e-015 3.18055e-015 -13.2362 -30.7258 -7.93129 157.245 66.9032 -162.963 12.2693 9.87243 -2.23052 -3.92066e-008 4.11375e-007 -1.05255e-007 15.1487 -38.5193 15.4229 171.179 43.9467 -171.309 13.9827 2.8672 15.2464 -1.97307e-006 -1.28149e-007 7.20422e-007 
-75.5716 4.84375 6.07257 -180 -85.9956 -180 -0.390882 2.7452 -0.162315 -0.775299 5.49138 -0.306379 -0.775299 5.49142 -0.306379 1.21141e-005 28.9969 6.78172e-006 4.47639 28.4704 -2.20242 18.7845 3.44798 1.67933 37.723 -2.62536 2.90315 -0.566667 10.864 -108.543 -44.3368 -47.6396 -13.3006 6.36111e-015 4.77083e-015 -0 9.54166e-015 3.18055e-015 -1.59028e-015 6.36111e-015 6.36111e-015 4.77083e-015 6.36111e-015 4.77083e-015 -0 -0.0146378 -8.87508e-005 -4.2935e-006 -3.18055e-015 -4.77083e-015 -0 6.36111e-015 4.77083e-015 -0 -0.0187628 -0.00117732 6.09897e-005 -6.84847e-007 9.94162e-007 1.41684e-006 6.36111e-015 4.77083e-015 -0 -0.0123046 -0.00325666 0.000682306 -6.36111e-015 -4.77083e-015 7.95139e-015 6.36111e-015 4.77083e-015 -0 9.54166e-015 3.18055e-015 -1.59028e-015 6.36111e-015 6.36111e-015 4.77083e-015 -20.4896 2.91205 -0.114441 -34.2 -1.94157 0.155723 -0.128422 13.3772 94.6623 49.3553 -41.841 23.1076 -1.3537e-006 9.19114e-007 4.36912e-007 -1.3537e-006 9.19114e-007 4.36912e-007 -1.3537e-006 9.19114e-007 4.36912e-007 -1.3537e-006 9.19114e-007 4.36912e-007 0.0149446 -9.22915e-005 2.44351e-006 -1.35373e-006 9.19171e-007 4.36793e-007 -1.3537e-006 9.19114e-007 4.36912e-007 0.0190046 -0.00119088 -5.93842e-005 -1.35373e-006 9.19188e-007 4.36773e-007 -1.3537e-006 9.19114e-007 4.36912e-007 0.0122407 -0.00323904 -0.000674374 -7.8071e-007 1.83163e-006 -1.30241e-006 -1.3537e-006 9.19114e-007 4.36912e-007 -1.3537e-006 9.19114e-007 4.36912e-007 -1.3537e-006 9.19114e-007 4.36912e-007 -13.7234 -30.6099 -8.46983 157.244 66.9041 -162.964 11.7721 9.87448 -1.91669 7.50869e-008 -3.24025e-007 -3.79504e-007 15.5464 -38.5181 15.7509 171.179 43.9463 -171.312 14.2991 2.88271 15.0831 -1.89981e-006 -3.86017e-007 1.66591e-006 
-75.5718 4.8436 6.07253 -180 -85.9956 -180 -0.37864 2.77591 -0.160913 -0.750784 5.55281 -0.303965 -0.750784 5.55281 -0.303965 -6.61581e-006 28.9972 2.64767e-006 4.22595 27.9379 -2.06218 19.015 3.28168 1.83303 37.4381 -2.58429 2.74372 -0.51637 10.9882 -107.835 -44.6333 -47.1605 -14.0311 6.36111e-015 -1.59028e-015 -3.18055e-015 6.36111e-015 -3.18055e-015 4.77083e-015 3.18055e-015 -1.59028e-015 -0 6.36111e-015 -1.59028e-015 -3.18055e-015 -0.0145777 -8.72747e-005 6.0372e-006 6.36111e-015 -7.95139e-015 1.59028e-015 6.36111e-015 -1.59028e-015 -3.18055e-015 -0.0187436 -0.00117301 6.98152e-005 -6.36111e-015 -4.77083e-015 -3.18055e-015 6.36111e-015 -1.59028e-015 -3.18055e-015 -0.0122794 -0.00325013 0.000675431 -2.47467e-007 6.43479e-007 2.4305e-006 6.36111e-015 -1.59028e-015 -3.18055e-015 6.36111e-015 -3.18055e-015 4.77083e-015 3.18055e-015 -1.59028e-015 -0 -20.6317 2.77358 -0.351532 -34.0973 -1.92834 0.155642 -0.128407 13.3771 94.6623 49.306 -41.6399 23.2593 -9.54166e-015 4.77083e-015 -4.77083e-015 -0 0 1.59028e-015 0 1.59028e-015 -0 -9.54166e-015 4.77083e-015 -4.77083e-015 0.0150446 -9.17106e-005 -2.26531e-006 6.36111e-015 -3.18055e-015 4.77083e-015 -9.54166e-015 4.77083e-015 -4.77083e-015 0.0189946 -0.00119222 -6.71457e-005 6.36111e-015 1.59028e-015 6.36111e-015 -9.54166e-015 4.77083e-015 -4.77083e-015 0.012205 -0.00323117 -0.000680025 6.36111e-015 4.77083e-015 -1.59028e-015 -9.54166e-015 4.77083e-015 -4.77083e-015 -0 0 1.59028e-015 0 1.59028e-015 -0 -14.2088 -30.4903 -9.00668 157.243 66.9048 -162.965 11.2748 9.87383 -1.60278 7.8899e-008 -2.01172e-007 9.27916e-007 15.944 -38.5154 16.0788 171.179 43.9457 -171.315 14.6155 2.89737 14.9196 -9.02139e-007 -3.88921e-007 2.61473e-006 
